<?xml version="1.0" encoding="UTF-8" standalone="no"?>
<svg
   width="362"
   height="362"
   viewBox="0 0 362 362"
   fill="none"
   version="1.1"
   id="svg4347"
   xmlns="http://www.w3.org/2000/svg"
   xmlns:svg="http://www.w3.org/2000/svg">
  <g
     clip-path="url(#clip0_1086_26227)"
     id="g4340"
     transform="translate(-392.939,-303)">
    <path
       d="m 573.939,328.857 c 85.588,0 155.143,69.556 155.143,155.143 0,85.587 -69.555,155.143 -155.143,155.143 -85.587,0 -155.142,-69.556 -155.142,-155.143 0,-85.587 69.555,-155.143 155.142,-155.143 z m 0,-25.857 c -99.937,0 -181,81.062 -181,181 0,99.938 81.063,181 181,181 99.938,0 181,-81.062 181,-181 0,-99.938 -81.062,-181 -181,-181 z"
       fill="#8f42ec"
       id="path4336" />
    <path
       d="m 624.62,529.121 c 4.783,-5.689 8.403,-12.412 10.86,-20.04 2.456,-7.757 5.688,-34.131 -0.129,-51.455 -2.586,-7.628 -6.206,-14.351 -10.99,-19.91 -4.783,-5.56 -10.601,-9.826 -17.583,-12.929 -6.981,-3.103 -15.255,-5.43 -24.435,-5.43 h -47.189 v 129.286 h 47.189 c 9.309,0 17.583,-3.103 24.694,-6.335 6.981,-3.103 12.929,-7.628 17.583,-13.187 z m -9.05,-128.64 c 10.472,4.396 19.522,10.731 26.891,18.747 7.24,8.016 12.8,17.583 16.549,28.443 3.62,10.86 5.43,23.53 5.43,36.329 0,12.541 -1.681,23.659 -5.301,34.519 -3.62,10.86 -9.05,20.557 -16.29,28.572 -7.24,8.145 -16.161,14.61 -26.891,19.264 -10.472,4.525 -22.755,8.145 -36.459,8.145 h -57.273 c -7.111,0 -12.929,-5.818 -12.929,-12.929 V 406.429 c 0,-7.111 5.818,-12.929 12.929,-12.929 h 57.273 c 13.446,0 25.599,2.586 36.071,6.981 z"
       fill="#8f42ec"
       id="path4338" />
  </g>
  <defs
     id="defs4345">
    <clipPath
       id="clip0_1086_26227">
      <rect
         width="362"
         height="362"
         fill="#ffffff"
         transform="translate(392.939,303)"
         id="rect4342"
         x="0"
         y="0" />
    </clipPath>
  </defs>
</svg>
