<?xml version="1.0" encoding="UTF-8" standalone="no"?>
<svg
   id="Layer_1"
   data-name="Layer 1"
   viewBox="0 0 84.119999 84.120003"
   version="1.1"
   width="84.120003"
   height="84.120003"
   xmlns:xlink="http://www.w3.org/1999/xlink"
   xmlns="http://www.w3.org/2000/svg"
   xmlns:svg="http://www.w3.org/2000/svg">
  <defs
     id="defs4">
    <linearGradient
       id="linearGradient928">
      <stop
         style="stop-color:#92003b;stop-opacity:1;"
         offset="0"
         id="stop924" />
      <stop
         style="stop-color:#3427ac;stop-opacity:1;"
         offset="1"
         id="stop926" />
    </linearGradient>
    <style
       id="style2">.cls-1{fill:#92003b;}.cls-2{fill:#ff7be5;}</style>
    <linearGradient
       xlink:href="#linearGradient928"
       id="linearGradient930"
       x1="27.737984"
       y1="54.604321"
       x2="81.645615"
       y2="28.278915"
       gradientUnits="userSpaceOnUse" />
  </defs>
  <path
     id="path24"
     class="cls-1"
     d="M 42.070312 0 A 42.06 42.06 0 1 0 84.119141 42.060547 A 42.06 42.06 0 0 0 42.070312 0 z M 24.539062 24.529297 L 31.548828 24.529297 L 31.548828 59.580078 L 24.539062 59.580078 L 24.539062 24.529297 z M 38.560547 24.529297 L 59.589844 24.529297 L 59.589844 31.539062 L 38.560547 31.539062 L 38.560547 24.529297 z M 38.560547 38.548828 L 59.589844 38.548828 L 59.589844 45.558594 L 38.560547 45.558594 L 38.560547 38.548828 z M 38.560547 52.570312 L 59.589844 52.570312 L 59.589844 59.580078 L 38.560547 59.580078 L 38.560547 52.570312 z "
     style="fill-opacity:1;fill:url(#linearGradient930)" />
</svg>
